<svg version="1.1" xmlns="http://www.w3.org/2000/svg" x="0px" y="0px" viewBox="0 0 267 327.1" xml:space="preserve"><g><circle class="st0" cx="131.8" cy="195.9" r="126.9"></circle><circle class="st0" cx="131.8" cy="195.9" r="103.9"></circle><path class="st0" d="M131.8,5C111,5,94.3,16.5,94.3,30.7c0,10.2,8.6,18.9,21,23.1V42.3c0-5.5,4.5-10,10-10h13c5.5,0,10,4.5,10,10 v11.5c12.4-4.2,21-13,21-23.1C169.3,16.5,152.5,5,131.8,5z"></path><path class="st0" d="M244.3,107.5l-23.7-23c-2-1.9-2-5.1-0.1-7.1l9.4-9.7c1.9-2,5.1-2,7.1-0.1l23.7,23c2,1.9,2,5.1,0.1,7.1 l-9.4,9.7C249.5,109.4,246.3,109.4,244.3,107.5z"></path><rect x="220.3" y="92.8" transform="matrix(0.697 -0.717 0.717 0.697 -3.638 193.7646)" class="st1" width="14.4" height="16.8"></rect><rect x="129.5" y="92" class="st2" width="4.5" height="16"></rect><rect x="27.9" y="195.9" class="st2" width="16" height="4.5"></rect><rect x="219.7" y="196" class="st2" width="16" height="4.5"></rect><rect x="129.5" y="283.8" class="st2" width="4.5" height="16"></rect><rect x="43.6" y="141.6" transform="matrix(0.5 -0.866 0.866 0.5 -103.7689 112.8367)" class="st2" width="4.5" height="9.4"></rect><rect x="79.4" y="280.6" transform="matrix(0.5 -0.866 0.866 0.5 -202.9415 214.2518)" class="st2" width="9.4" height="4.5"></rect><rect x="178.6" y="108.9" transform="matrix(0.5 -0.866 0.866 0.5 -4.5639 214.3368)" class="st2" width="9.4" height="4.5"></rect><rect x="215.4" y="240.8" transform="matrix(0.5 -0.866 0.866 0.5 -103.8229 311.2508)" class="st2" width="4.5" height="9.4"></rect><rect x="79.9" y="105.3" transform="matrix(0.866 -0.5 0.5 0.866 -43.9911 55.8155)" class="st2" width="4.5" height="9.4"></rect><rect x="42.3" y="245.2" transform="matrix(0.866 -0.5 0.5 0.866 -117.4175 56.6544)" class="st2" width="9.4" height="4.5"></rect><rect x="214.2" y="146" transform="matrix(0.866 -0.5 0.5 0.866 -44.8072 129.2984)" class="st2" width="9.4" height="4.5"></rect><rect x="179.1" y="277.1" transform="matrix(0.866 -0.5 0.5 0.866 -116.6104 128.4238)" class="st2" width="4.5" height="9.4"></rect></g><g class="arrow"><circle class="st0" cx="131.8" cy="195.9" r="11.9"></circle><polygon class="st3" points="131.8,129.4 122.1,184.8 141.4,184.3 "></polygon></g></svg>