<?xml version="1.0" encoding="utf-8"?>
<!-- Generator: Adobe Illustrator 25.3.1, SVG Export Plug-In . SVG Version: 6.00 Build 0)  -->
<svg version="1.1" id="Слой_1" xmlns="http://www.w3.org/2000/svg" xmlns:xlink="http://www.w3.org/1999/xlink" x="0px" y="0px"
	 viewBox="0 0 165.6 53.3" style="enable-background:new 0 0 165.6 53.3;" xml:space="preserve">
<style type="text/css">
	.st0{fill:#8ABDFF;}
	.st1{fill:#383842;}
	.st2{fill:#FFFFFF;}
	.st3{fill-rule:evenodd;clip-rule:evenodd;fill:#383842;}
</style>
<path class="st0" d="M19.3,16.1c-1-0.3-2.1-0.6-3.2-0.4c-5,0.8-10.8,5.1-11.5,12.9c0,1.6,0.3,3.1,0.8,4.4C2.2,34.8,0,39.2,0,43.1
	c0,5.7,4.6,10.3,10.3,10.3h50.9c5.7,0,10.3-4.6,10.3-10.3c0-3.9-2.2-8.3-5.4-10c0.5-1.4,0.8-2.9,0.8-4.4c0-7.3-4.7-11.1-9.5-12.5
	c-1.5-0.5-3.1-0.3-4.6,0.2l-15.2,5.1c-0.8,0.3-1.7,0.3-2.5,0L19.3,16.1z"/>
<path class="st1" d="M45,46.2c-1.8,0-3-0.8-3.8-1.5c-0.4-0.4-0.4-1-0.1-1.4c0.4-0.4,1-0.4,1.4-0.1c1.2,1.1,3.7,1.1,4.7-0.1
	c0.4-0.4,1-0.3,1.4,0.1c0.4,0.4,0.3,1-0.1,1.4C47.8,45.3,46.7,46.2,45,46.2z"/>
<path class="st2" d="M56.2,41.6c3.1,0,5.6-2.5,5.6-5.7s-2.5-5.7-5.6-5.7c-3.1,0-5.6,2.5-5.6,5.7S53.1,41.6,56.2,41.6z"/>
<path class="st1" d="M56.2,39.3c1.9,0,3.4-1.5,3.4-3.4c0-1.9-1.5-3.4-3.4-3.4c-1.9,0-3.4,1.5-3.4,3.4C52.8,37.8,54.3,39.3,56.2,39.3
	z"/>
<path class="st2" d="M55.4,36.1c1.1,0,1.9-0.9,1.9-2c0-1.1-0.9-2-1.9-2c-1.1,0-1.9,0.9-1.9,2C53.5,35.2,54.3,36.1,55.4,36.1z"/>
<path class="st2" d="M33,41.6c3.1,0,5.6-2.5,5.6-5.7s-2.5-5.7-5.6-5.7c-3.1,0-5.6,2.5-5.6,5.7S29.9,41.6,33,41.6z"/>
<path class="st1" d="M33,39.3c1.9,0,3.4-1.5,3.4-3.4c0-1.9-1.5-3.4-3.4-3.4c-1.9,0-3.4,1.5-3.4,3.4C29.6,37.8,31.1,39.3,33,39.3z"/>
<path class="st2" d="M32.2,36.1c1.1,0,1.9-0.9,1.9-2c0-1.1-0.9-2-1.9-2c-1.1,0-1.9,0.9-1.9,2C30.3,35.2,31.1,36.1,32.2,36.1z"/>
<path class="st0" d="M35.9,0C36,0,36.2,0,36.4,0l25.2,7.8c0.8,0.2,0.8,1.4,0,1.6l-25.2,8c-0.2,0.1-0.3,0.1-0.5,0L11.5,9.4
	c-0.8-0.3-0.8-1.4,0-1.6L35.9,0z"/>
<path class="st1" d="M153.8,28.3c0.1,0.1,0.2,0.2,0.2,0.3l0,0c0.6,0.6,1.3,1.1,2.1,1.4c0.8,0.3,1.7,0.5,2.7,0.5c1,0,1.9-0.2,2.7-0.5
	c0.8-0.3,1.5-0.8,2.1-1.4c0.1-0.1,0.3-0.3,0.4-0.4l-2.1-1.2c0,0,0,0,0,0c-0.4,0.4-0.8,0.7-1.3,0.9l0,0c-0.5,0.2-1.1,0.3-1.8,0.3
	c-0.7,0-1.3-0.1-1.8-0.3c-0.5-0.2-0.9-0.5-1.2-0.8L153.8,28.3z"/>
<path class="st1" d="M153.3,33h2.2v9.5l6.7-9.5h2.2v13.4h-2.2V37l-6.6,9.5l-2.2,0V33z"/>
<path class="st1" d="M138.9,33h2.2v9.5l6.7-9.5h2.2v13.4h-2.2V37l-6.6,9.5l-2.2,0V33z"/>
<path class="st1" d="M125,33h2.2v5.3h6.7V33h2.2v5.3v2.3v5.8h-2.2v-5.8h-6.7v5.8H125v-5.8v-2.3V33z"/>
<path class="st3" d="M120,33.6h2.2v12.9H120V45c-0.1,0.1-0.2,0.1-0.3,0.2c-0.6,0.5-1.4,0.8-2.2,1.1c-0.8,0.2-1.7,0.3-2.6,0.1
	c-0.9-0.1-1.8-0.4-2.5-0.9c-0.7-0.4-1.3-1-1.8-1.6l0,0c-0.5-0.7-0.8-1.4-1-2.3l0,0c-0.2-0.9-0.2-1.8-0.1-2.7
	c0.1-0.9,0.4-1.8,0.8-2.6l0,0c0.4-0.8,0.9-1.4,1.6-1.9c0.6-0.5,1.4-0.9,2.2-1.1c0.8-0.2,1.7-0.3,2.6-0.1c0.9,0.1,1.8,0.4,2.5,0.9
	c0.3,0.2,0.5,0.3,0.7,0.5V33.6z M119.2,37c0.3,0.5,0.5,1,0.6,1.5l0,0c0.1,0.6,0.1,1.2,0,1.8c-0.1,0.7-0.3,1.2-0.5,1.8l0,0
	c-0.2,0.5-0.6,0.9-1,1.3c-0.4,0.3-0.9,0.6-1.4,0.7l0,0c-0.5,0.2-1.1,0.2-1.7,0.1c-0.6-0.1-1.2-0.3-1.6-0.6c-0.5-0.3-0.8-0.7-1.1-1.1
	c-0.3-0.4-0.5-0.9-0.6-1.5c-0.1-0.6-0.1-1.2,0-1.8c0.1-0.7,0.3-1.2,0.5-1.8c0.3-0.5,0.6-1,1-1.3c0.4-0.4,0.8-0.6,1.4-0.8
	c0.5-0.2,1.1-0.2,1.7-0.1c0.6,0.1,1.2,0.3,1.6,0.6l0,0C118.5,36.2,118.9,36.6,119.2,37z"/>
<path class="st1" d="M95.7,33h2.2v5.3h6.7V33h2.2v5.3v2.3v5.8h-2.2v-5.8h-6.7v5.8h-2.2v-5.8l0-2.3L95.7,33z"/>
<path class="st1" d="M86.8,38.6c1.1,0,1.9-0.2,2.3-0.5c0.5-0.4,0.7-0.7,0.7-1c0-0.5-0.3-0.9-0.9-1.2l0,0c-0.6-0.3-1.5-0.5-2.7-0.5
	c-1,0-2.5,0.2-3.1,0.5l-0.3-2c0.9-0.5,2.1-0.7,3.4-0.7c0.9,0,1.7,0.1,2.4,0.3c0.7,0.2,1.4,0.4,1.9,0.8c0.6,0.3,1,0.7,1.3,1.3
	c0.3,0.5,0.5,1.1,0.5,1.7c0,0.7-0.2,1.3-0.7,1.9c-0.3,0.3-0.6,0.6-1,0.8c0.4,0.2,0.7,0.5,1,0.8c0.5,0.6,0.8,1.2,0.8,1.9
	c0,0.6-0.2,1.2-0.5,1.8l0,0c-0.3,0.5-0.8,0.9-1.4,1.3c-0.6,0.3-1.2,0.6-2,0.8c-0.8,0.2-1.6,0.3-2.5,0.3c-1.4,0-2.6-0.2-3.6-0.7
	l0.6-2.1c0.7,0.3,2,0.6,3,0.6c1.2,0,2.2-0.2,2.9-0.6l0,0c0.7-0.4,1-0.8,1-1.3c0-0.2-0.1-0.3-0.2-0.5l0,0l0,0
	c-0.1-0.2-0.3-0.4-0.6-0.5l0,0c-0.3-0.2-0.6-0.3-1-0.4l0,0c-0.4-0.1-0.9-0.2-1.4-0.2h-2.4v-2.2H86.8z"/>
<path class="st3" d="M161.7,24.7c0.8-0.3,1.5-0.8,2.1-1.4c0.6-0.6,1-1.3,1.4-2.1c0.3-0.8,0.5-1.7,0.5-2.7c0-1-0.2-1.9-0.5-2.7
	c-0.3-0.8-0.8-1.6-1.4-2.2c-0.6-0.6-1.3-1.1-2.1-1.4c-0.8-0.3-1.7-0.5-2.7-0.5c-1,0-1.9,0.2-2.7,0.5c-0.8,0.3-1.5,0.8-2.1,1.4
	c-0.6,0.6-1,1.3-1.4,2.2l0,0c-0.3,0.8-0.5,1.7-0.5,2.7c0,1,0.2,1.9,0.5,2.7l0,0c0.3,0.8,0.8,1.5,1.4,2.1l0,0c0.6,0.6,1.3,1,2.1,1.4
	c0.8,0.3,1.7,0.5,2.7,0.5C160,25.2,160.9,25,161.7,24.7z M162.9,16.7c-0.2-0.6-0.5-1-0.8-1.4c-0.4-0.4-0.8-0.7-1.3-1l0,0
	c-0.5-0.2-1.1-0.3-1.8-0.3c-0.7,0-1.3,0.1-1.8,0.4c-0.5,0.2-1,0.6-1.3,1c-0.4,0.4-0.6,0.9-0.8,1.4c-0.2,0.5-0.3,1.1-0.3,1.8
	c0,0.7,0.1,1.3,0.3,1.8c0.2,0.5,0.5,1,0.8,1.4c0.4,0.4,0.8,0.7,1.3,0.9c0.5,0.2,1.1,0.3,1.8,0.3c0.7,0,1.3-0.1,1.8-0.3l0,0
	c0.5-0.2,1-0.5,1.3-0.9c0.4-0.4,0.6-0.9,0.8-1.4l0,0c0.2-0.6,0.3-1.2,0.3-1.8C163.2,17.9,163.1,17.3,162.9,16.7L162.9,16.7z"/>
<path class="st1" d="M139.5,11.8h2.3v6.2l6.5-6.1l3.4,0l-6.7,6.2l6.7,7.1l-3.4,0l-5-5.5l-1.5,1.4v4.1h-2.3V11.8z"/>
<path class="st3" d="M134,12.3h2.2v12.9H134v-1.5c-0.1,0.1-0.2,0.1-0.3,0.2c-0.6,0.5-1.4,0.8-2.2,1.1c-0.8,0.2-1.7,0.3-2.6,0.1
	c-0.9-0.1-1.8-0.4-2.5-0.9c-0.7-0.4-1.3-1-1.8-1.6l0,0c-0.5-0.7-0.8-1.4-1-2.3l0,0c-0.2-0.9-0.2-1.8-0.1-2.7
	c0.1-0.9,0.4-1.8,0.8-2.6l0,0c0.4-0.8,0.9-1.4,1.6-1.9c0.6-0.5,1.4-0.9,2.2-1.1c0.8-0.2,1.7-0.3,2.6-0.1c0.9,0.1,1.8,0.4,2.5,0.9
	c0.3,0.2,0.5,0.3,0.7,0.5V12.3z M133.2,15.7c0.3,0.5,0.5,1,0.6,1.5l0,0c0.1,0.6,0.1,1.2,0,1.8c-0.1,0.7-0.3,1.2-0.5,1.8l0,0
	c-0.2,0.5-0.6,0.9-1,1.3c-0.4,0.3-0.9,0.6-1.4,0.7l0,0c-0.5,0.2-1.1,0.2-1.7,0.1c-0.6-0.1-1.2-0.3-1.6-0.6c-0.5-0.3-0.8-0.7-1.1-1.1
	c-0.3-0.4-0.5-0.9-0.6-1.5c-0.1-0.6-0.1-1.2,0-1.8c0.1-0.7,0.3-1.2,0.5-1.8c0.3-0.5,0.6-1,1-1.3c0.4-0.4,0.8-0.6,1.4-0.8
	c0.5-0.2,1.1-0.2,1.7-0.1c0.6,0.1,1.2,0.3,1.6,0.6l0,0C132.5,14.9,132.9,15.3,133.2,15.7z"/>
<path class="st3" d="M121.8,24.9V11.8h-4.8c-2.8,0-5.1,2.3-5.1,5.1v4.9c0,0.5-0.1,0.7-0.3,0.9c-0.1,0.2-0.4,0.3-0.8,0.3
	c-0.2,0-0.4,0-0.5,0c-0.1,0-0.2-0.1-0.3-0.1l-0.4-0.3l-0.5,2.2l0.2,0.1c0.4,0.3,1.1,0.4,1.8,0.4c0.4,0,0.9-0.1,1.3-0.2
	c0.4-0.1,0.8-0.4,1.1-0.7c0.3-0.3,0.6-0.7,0.7-1.1c0.2-0.4,0.3-0.9,0.3-1.4v-4.4c0-1.9,1.5-3.4,3.4-3.4h1.5v10.9H121.8z"/>
<path class="st3" d="M104.1,24.7c0.8-0.3,1.5-0.8,2.1-1.3c0.6-0.6,1-1.3,1.3-2.1c0.3-0.8,0.5-1.7,0.5-2.7c0-0.9-0.2-1.8-0.5-2.7
	c-0.3-0.8-0.7-1.5-1.3-2.1c-0.6-0.6-1.3-1.1-2.1-1.4c-0.8-0.3-1.7-0.5-2.7-0.5c-1,0-1.8,0.2-2.6,0.5c-0.6,0.2-1.1,0.6-1.6,0.9
	c-0.3-1.4,1.1-4.9,3.4-4.9c1.4,0,2.4,1.3,4.2,0.9c1.1-0.3,2.3-1.4,2.5-1.7l-1.7-1.4c-0.3,0.4-1.1,1.1-2.3,0.9
	c-1.4-0.3-1.8-1.1-4-0.6c-2.3,0.6-4.8,3.7-4.8,7.8s0.3,4.9,0.3,4.9c0,0.7,0.2,1.5,0.5,2.1l0,0c0.3,0.8,0.8,1.5,1.3,2.1l0,0
	c0.6,0.6,1.3,1,2.1,1.3c0.8,0.3,1.7,0.5,2.6,0.5C102.4,25.2,103.3,25,104.1,24.7z M105.2,16.8c-0.2-0.5-0.5-1-0.8-1.4
	c-0.4-0.4-0.8-0.7-1.3-1l0,0c-0.5-0.2-1.1-0.3-1.7-0.3c-0.7,0-1.2,0.1-1.7,0.3c-0.5,0.2-0.9,0.5-1.3,0.9c-0.4,0.4-0.6,0.9-0.8,1.4
	c-0.2,0.5-0.3,1.1-0.3,1.8c0,0.7,0.1,1.3,0.3,1.8c0.2,0.5,0.5,1,0.8,1.4c0.3,0.4,0.8,0.7,1.3,0.9c0.5,0.2,1.1,0.3,1.7,0.3
	c0.7,0,1.2-0.1,1.7-0.3l0,0c0.5-0.2,1-0.5,1.3-0.9c0.4-0.4,0.6-0.8,0.8-1.4l0,0c0.2-0.5,0.3-1.1,0.3-1.8
	C105.5,18,105.4,17.4,105.2,16.8L105.2,16.8z"/>
<path class="st3" d="M89.6,24.7c0.8-0.3,1.5-0.8,2.1-1.4c0.6-0.6,1-1.3,1.4-2.1c0.3-0.8,0.5-1.7,0.5-2.7c0-1-0.2-1.9-0.5-2.7
	c-0.3-0.8-0.8-1.6-1.4-2.2c-0.6-0.6-1.3-1.1-2.1-1.4c-0.8-0.3-1.7-0.5-2.7-0.5c-1,0-1.9,0.2-2.7,0.5c-0.8,0.3-1.5,0.8-2.1,1.4
	c-0.6,0.6-1,1.3-1.4,2.2l0,0c-0.3,0.8-0.5,1.7-0.5,2.7c0,1,0.2,1.9,0.5,2.7l0,0c0.3,0.8,0.8,1.5,1.4,2.1l0,0c0.6,0.6,1.3,1,2.1,1.4
	c0.8,0.3,1.7,0.5,2.7,0.5C87.8,25.2,88.7,25,89.6,24.7z M90.8,16.7c-0.2-0.6-0.5-1-0.8-1.4c-0.4-0.4-0.8-0.7-1.3-1l0,0
	c-0.5-0.2-1.1-0.3-1.8-0.3c-0.7,0-1.3,0.1-1.8,0.4c-0.5,0.2-1,0.6-1.3,1c-0.4,0.4-0.6,0.9-0.8,1.4c-0.2,0.5-0.3,1.1-0.3,1.8
	c0,0.7,0.1,1.3,0.3,1.8c0.2,0.5,0.5,1,0.8,1.4c0.4,0.4,0.8,0.7,1.3,0.9c0.5,0.2,1.1,0.3,1.8,0.3c0.7,0,1.3-0.1,1.8-0.3l0,0
	c0.5-0.2,1-0.5,1.3-0.9c0.4-0.4,0.6-0.9,0.8-1.4l0,0c0.2-0.6,0.3-1.2,0.3-1.8C91.1,17.9,91,17.3,90.8,16.7L90.8,16.7z"/>
</svg>
